<?xml version="1.0" encoding="utf-8"?>
<!-- Generator: Adobe Illustrator 23.0.1, SVG Export Plug-In . SVG Version: 6.00 Build 0)  -->
<svg version="1.1" id="katman_1" xmlns="http://www.w3.org/2000/svg" xmlns:xlink="http://www.w3.org/1999/xlink" x="0px" y="0px"
	 viewBox="0 0 1242 536" style="enable-background:new 0 0 1242 536;" xml:space="preserve">
<style type="text/css">
	.st0{fill:#FFFFFF;}
	.st1{font-family:'Frygia-Bold';}
	.st2{font-size:141.9368px;}
	.st3{letter-spacing:-8;}
	.st4{letter-spacing:-11;}
	.st5{fill:#D51F36;}
</style>
<g>
	<path class="st0" d="M279.8,401.6c-0.2,0.8,0.1,0.9,0.8,0.9c2.8,0.1,5.6,0.3,8.4,0.4c0.8,0,1.6,0.1,2.3,0.2
		c0.1-0.3,0.2-0.6,0.3-0.8c1.5-4.1,2.9-8.2,4.4-12.2c2-5.8,4.1-11.6,6.1-17.4c2.3-6.6,4.6-13.2,6.9-19.8c2.1-6,4.2-12,6.3-18
		c3.1-8.9,6.1-17.8,9.4-26.6c1.3-3.6,0.4-6.3-2.1-8.9c-2.8-2.8-5.7-5.5-8.2-8.5c-2.5-3-5.6-5.6-8.1-8.6c-1.7-2.1-3.7-3.9-5.5-5.9
		c-3.8-4.2-7.7-8.4-11.6-12.6c-2.9-3.1-5.7-6.2-8.6-9.3c-1.4-1.5-2.9-3-4.2-4.6c-3.5-4.2-7.1-8.3-10.4-12.6c-2.3-3-4.9-5.8-7.3-8.8
		c-3.4-4.2-6.6-8.5-10-12.7c-3-3.7-5.9-7.4-8.8-11.1c-3.8-4.9-7.7-9.7-11.4-14.6c-3.3-4.4-6.6-8.8-10-13.1
		c-3.9-5.1-7.6-10.4-11.4-15.6c-4.6-6.5-8.9-13.1-13.4-19.7c-5.8-8.5-11.4-17.1-17-25.7c-6.2-9.6-12.3-19.4-18-29.3
		c-3.6-6.3-7.1-12.7-10.5-19.1c-4.3-8.3-8.4-16.6-12.3-25.1c-1.2-2.7-2.3-5.5-3.8-8.2c-0.4-0.7-0.7-1.2-1.3,0
		c-1.4,2.6-2.8,5.3-3.6,8.2c-1.7,6.2-2.8,12.5-3,18.9c-0.2,6.8,0.7,13.5,2.2,20.2c2.2,9.7,5.1,19.1,8.8,28.3
		c4.2,10.5,9.3,20.6,15,30.4c4.1,7.1,8.4,14.1,13,20.9c2.7,3.9,5.4,7.8,8.2,11.6c3,4.1,6.1,8.1,9.1,12.1c2.6,3.4,5.5,6.6,8.1,10
		c3.4,4.3,6.6,8.8,10,13.1c3.1,4,6.3,8,9.6,11.9c3.3,3.9,6.6,7.8,10.1,11.5c3.2,3.5,6.4,7,9.6,10.5c3.7,4,7.4,8,11.1,12
		c3.3,3.6,6.5,7.2,9.8,10.7c4.1,4.5,8.4,8.8,12.4,13.4c2.3,2.6,4.9,5,7.3,7.7c3.7,4.2,7.8,7.9,11.5,12c3.4,3.8,7.3,7,10.5,11
		c1.4,1.8,2.4,3.8,2.4,6.2c0,2.8-0.7,5.5-1.2,8.3c-1.1,7-2.1,14-3.1,21c-0.8,6-1.7,11.9-2.6,17.9c-1.3,8.4-2.6,16.8-3.9,25.2
		C281.4,392.1,280.7,396.9,279.8,401.6z"/>
	<path class="st0" d="M248.2,395.7c1.5-10.6,3.4-21.1,5.2-31.7c1.1-6.3,2-12.5,3-18.8c1.4-9,2.5-18.1,4.2-27.1
		c0.5-2.8,0-5.2-2.1-7.3c-8.8-8.8-17.7-17.4-26-26.7c-3.7-4.2-7.6-8.2-11.4-12.3c-3.4-3.6-6.7-7.3-10.1-11
		c-3.1-3.4-6.2-6.8-9.4-10.3c-2.6-2.9-5-5.8-7.7-8.6c-3.6-3.8-6.8-7.9-10.3-11.8c-1-1.1-1.9-2.2-2.8-3.3c-2.4-2.9-4.8-5.9-7.2-8.9
		c-2-2.4-3.9-4.8-5.9-7.3c-2.3-3-4.5-6-6.8-9c-2.2-2.8-4.5-5.6-6.6-8.5c-3.5-4.7-6.9-9.6-10.3-14.4c-3.4-4.7-6.8-9.4-10-14.2
		c-4.5-6.8-9.1-13.6-13.5-20.6c-4.4-6.9-8.9-13.8-12.9-21c-5.4-9.6-10.5-19.4-16-29.4c-0.6,1.2-1.1,2.2-1.4,3.2
		c-2.1,6.1-2.1,12.3-1.6,18.6c0.7,7.3,2.4,14.4,4.5,21.3c2.6,8.4,5.8,16.5,9.6,24.5c4.7,9.8,9.9,19.1,15.8,28.2
		c3.1,4.8,6.3,9.6,9.5,14.3c2.8,4.1,5.9,8.1,8.9,12.1c2.8,3.9,5.5,7.9,8.5,11.6c2.5,3.2,5,6.5,7.6,9.6c3,3.5,5.7,7.1,8.5,10.7
		c2.6,3.2,5.2,6.4,7.8,9.6c3.2,3.9,6.4,7.7,9.7,11.5c2.6,3.1,5.4,6,8.1,9c4.7,5.1,9.8,9.7,14.4,14.9c3.4,3.7,7.1,7.1,10.8,10.6
		c6.6,6.2,12.8,12.7,19.2,19c0.7,0.7,1.1,1.6,1.6,2.5c1,2.2,0.6,4.6,0.7,6.8c0.1,9.7,0.5,19.3,1,29c0.2,2.9,0.3,5.9,0.5,8.8
		c0.4,6.3,0.8,12.5,1.1,18.8c0.2,3.6,0.3,7.2,0.5,10.9c0,0.7,0,1.5,1.2,1.5c2.4,0,4.9,0.1,7.4,0.2c1.2,0.1,2,0,2-1.7
		C247.6,398.1,248,396.9,248.2,395.7z"/>
	<path class="st0" d="M213.5,399.5c0.2,0,0.4,0,0.7,0c0-0.3,0.1-0.6,0-0.9c-0.2-2.7-0.3-5.4-0.5-8.1c-0.4-5.6-0.9-11.1-1.3-16.6
		c-0.4-4.9-0.6-9.8-0.9-14.6c-0.5-6.2-0.9-12.4-1.1-18.6c-0.1-2.5-0.6-4.8-2.4-6.7c-4.5-4.7-9.3-9.1-13.7-14
		c-5.3-5.9-11.4-11.2-16.7-17.2c-4.4-4.9-9.4-9.2-13.8-14.2c-3.9-4.5-8.3-8.4-12.4-12.8c-2.9-3.1-5.8-6.3-8.7-9.4
		c-3.3-3.6-6.4-7.5-9.6-11.3c-2.1-2.5-4.3-4.8-6.4-7.3c-3.3-4-6.6-8.1-9.9-12.2c-2.2-2.7-4.5-5.3-6.7-8.1c-3.3-4.2-6.4-8.7-9.8-12.9
		c-3.5-4.4-6.8-8.9-10.1-13.4c-4.2-5.7-8.1-11.7-12.1-17.5c-0.2-0.4-0.2-1.1-0.9-1c-0.6,0.1-0.7,0.8-0.8,1.3
		c-1.5,4.4-1.2,8.8-0.6,13.3c0.9,6.6,3.4,12.7,6.3,18.7c2.9,5.9,6,11.6,9.5,17.1c3.2,5.2,6.6,10.3,10.2,15.2
		c3.4,4.6,6.7,9.2,10.3,13.6c3.5,4.3,6.6,8.8,10,13.1c2.6,3.4,5.3,6.7,8.1,10c3,3.5,6.1,6.8,9.2,10.2c2.6,2.8,5.5,5.4,8.3,8
		c3.3,3,6.4,6.3,9.4,9.6c3.2,3.6,6.7,6.9,10.3,10.1c4.1,3.6,7.7,7.7,11.8,11.3c2.8,2.5,5.3,5.3,8,7.9c1.9,1.8,3.2,4,4,6.6
		c2,6.6,3.9,13.2,5.9,19.8c3,10,6.1,19.9,9.1,29.9c0.3,1,1,1,1.6,1.1C209.9,399.4,211.8,399.2,213.5,399.5z"/>
</g>
<text transform="matrix(1 0 0 1 349.002 398.9551)" class="st0 st1 st2 st3">Work </text>
<text transform="matrix(1 0 0 1 816.002 398.9551)" class="st0 st1 st2 st3">Time</text>
<g>
	<text transform="matrix(1 0 0 1 753.502 398.9551)" class="st0 st1 st2 st4">f </text>
	<g>
		<path class="st0" d="M704.8,368.6c1.7-0.1,3.3-1,4.3-2.4l15.6-21.6c0.5-0.7,0.4-1.6-0.2-2.1c-0.6-0.6-1.5-0.7-2.1-0.2l-21.6,15.6
			c-1.4,1-2.3,2.6-2.4,4.3c-0.1,1.7,0.5,3.4,1.7,4.7c1.1,1.1,2.6,1.7,4.2,1.7C704.5,368.6,704.7,368.6,704.8,368.6L704.8,368.6z
			 M701.8,362.4c0.1-0.8,0.5-1.5,1.1-1.9L716,351l-9.5,13.2c-0.5,0.6-1.1,1-1.9,1.1c-0.8,0-1.5-0.2-2-0.8
			C702,364,701.7,363.2,701.8,362.4L701.8,362.4z M701.8,362.4"/>
		<path class="st0" d="M742.2,337.9c0,0,0-0.1,0-0.1c0,0-0.1-0.1-0.1-0.1c-1.7-2.9-3.7-5.6-5.9-8l3.6-3.6l2.4,2.4l7.1-7.1l-7.1-7.1
			l-7.1,7.1l2.4,2.4l-3.6,3.6c-2.4-2.3-5.1-4.3-8-5.9c0,0,0-0.1-0.1-0.1c0,0-0.1,0-0.1,0c-5.2-3-10.9-4.9-17.1-5.7v-2h2.5
			c2.3,0,4.2-1.9,4.2-4.2c0-2.3-1.9-4.2-4.2-4.2h-15c-2.3,0-4.2,1.9-4.2,4.2c0,2.3,1.9,4.2,4.2,4.2h2.5v1.9
			c-1.8,0.2-3.6,0.5-5.4,0.9c-0.9,0.2-1.5,1.1-1.3,2c0.2,0.9,1.1,1.5,2,1.2c1.5-0.4,3.1-0.6,4.6-0.8l1.8-0.1c0.5,0,1-0.1,1.5-0.1
			v3.3c0,0.9,0.8,1.7,1.7,1.7c0.9,0,1.7-0.7,1.7-1.7v-3.3c6.3,0.3,12.2,2,17.4,4.7l-1.6,2.8c-0.5,0.8-0.2,1.8,0.6,2.3
			c0.3,0.1,0.6,0.2,0.8,0.2c0.6,0,1.1-0.3,1.4-0.8l1.6-2.8c5.2,3.3,9.7,7.7,13,13l-2.8,1.6c-0.8,0.5-1.1,1.5-0.6,2.3
			c0.3,0.5,0.9,0.8,1.4,0.8c0.3,0,0.6-0.1,0.8-0.2l2.8-1.6c2.8,5.3,4.5,11.3,4.8,17.7h-3.3c-0.9,0-1.7,0.7-1.7,1.7
			c0,0.9,0.7,1.7,1.7,1.7h3.3c-0.3,6.4-1.9,12.4-4.8,17.7l-2.8-1.6c-0.8-0.5-1.8-0.2-2.3,0.6c-0.5,0.8-0.2,1.8,0.6,2.3l2.8,1.6
			c-3.3,5.2-7.7,9.6-13,13l-1.6-2.8c-0.5-0.8-1.5-1.1-2.3-0.6c-0.8,0.5-1.1,1.5-0.6,2.3l1.6,2.8c-5.3,2.8-11.2,4.5-17.4,4.7v-3.3
			c0-0.9-0.7-1.7-1.7-1.7c-0.9,0-1.7,0.7-1.7,1.7v3.3c-2.7-0.1-5.3-0.4-8-1c-0.9-0.2-1.8,0.4-2,1.3c-0.2,0.9,0.4,1.8,1.3,2
			c3.3,0.8,6.7,1.2,10.1,1.2c0.1,0,0.2,0,0.2,0c0,0,0,0,0,0c0,0,0,0,0,0c8-0.1,15.5-2.2,22-6c0.1,0,0.1,0,0.2-0.1c0,0,0.1,0,0.1-0.1
			c6.7-3.9,12.4-9.5,16.3-16.3c0,0,0.1-0.1,0.1-0.1c0,0,0-0.1,0-0.1c3.8-6.6,6-14.2,6-22.4C748.2,352.1,746,344.5,742.2,337.9
			L742.2,337.9z M742.1,319l2.4,2.3l-2.4,2.4l-2.4-2.4L742.1,319z M701.8,315.3v-5h-5.8c-0.5,0-0.8-0.4-0.8-0.8s0.4-0.8,0.8-0.8h15
			c0.5,0,0.8,0.4,0.8,0.8s-0.4,0.8-0.8,0.8h-5.8v5c-0.6,0-1.1,0-1.7,0c0,0-0.1,0-0.1,0c0,0-0.1,0-0.1,0c-0.3,0-0.5,0-0.8,0
			C702.2,315.3,702,315.3,701.8,315.3L701.8,315.3z M701.8,315.3"/>
		<path class="st0" d="M688.4,328.6h-8.3c-0.9,0-1.7,0.8-1.7,1.7c0,0.9,0.8,1.7,1.7,1.7h8.3c0.9,0,1.7-0.8,1.7-1.7
			C690.1,329.3,689.4,328.6,688.4,328.6L688.4,328.6z M688.4,328.6"/>
		<path class="st0" d="M688.4,340.3h-16.7c-0.9,0-1.7,0.7-1.7,1.7c0,0.9,0.7,1.7,1.7,1.7h16.7c0.9,0,1.7-0.7,1.7-1.7
			C690.1,341,689.4,340.3,688.4,340.3L688.4,340.3z M688.4,340.3"/>
		<path class="st0" d="M688.4,351.9h-25c-0.9,0-1.7,0.7-1.7,1.7c0,0.9,0.7,1.7,1.7,1.7h25c0.9,0,1.7-0.7,1.7-1.7
			C690.1,352.7,689.4,351.9,688.4,351.9L688.4,351.9z M688.4,351.9"/>
		<path class="st0" d="M688.4,363.6h-31.7c-0.9,0-1.7,0.7-1.7,1.7c0,0.9,0.7,1.7,1.7,1.7h31.7c0.9,0,1.7-0.8,1.7-1.7
			C690.1,364.3,689.4,363.6,688.4,363.6L688.4,363.6z M688.4,363.6"/>
		<path class="st0" d="M688.4,375.3h-21.7c-0.9,0-1.7,0.7-1.7,1.7c0,0.9,0.7,1.7,1.7,1.7h21.7c0.9,0,1.7-0.7,1.7-1.7
			C690.1,376,689.4,375.3,688.4,375.3L688.4,375.3z M688.4,375.3"/>
		<path class="st0" d="M688.4,386.9h-11.7c-0.9,0-1.7,0.7-1.7,1.7c0,0.9,0.7,1.7,1.7,1.7h11.7c0.9,0,1.7-0.8,1.7-1.7
			C690.1,387.7,689.4,386.9,688.4,386.9L688.4,386.9z M688.4,386.9"/>
	</g>
</g>
</svg>
