<?xml version="1.0" standalone="no"?>
<!DOCTYPE svg PUBLIC "-//W3C//DTD SVG 20010904//EN"
 "http://www.w3.org/TR/2001/REC-SVG-20010904/DTD/svg10.dtd">
<svg version="1.0" xmlns="http://www.w3.org/2000/svg"
 width="64.000000pt" height="64.000000pt" viewBox="0 0 64.000000 64.000000"
 preserveAspectRatio="xMidYMid meet">

<g transform="translate(0.000000,64.000000) scale(0.100000,-0.100000)"
fill="#000000" stroke="none">
<path d="M275 631 c-78 -20 -131 -69 -155 -145 -23 -72 -10 -114 95 -296 53
-94 101 -170 105 -170 4 0 52 76 105 170 105 182 118 224 95 296 -34 105 -144
170 -245 145z m100 -146 c34 -33 34 -83 0 -115 -77 -72 -185 41 -110 115 15
16 36 25 55 25 19 0 40 -9 55 -25z"/>
</g>
</svg>
